<svg data-v-6805eed4="" version="1.0" xmlns="http://www.w3.org/2000/svg" xmlns:xlink="http://www.w3.org/1999/xlink" width="100%" height="100%" viewBox="0 0 340.000000 250.000000" preserveAspectRatio="xMidYMid meet" color-interpolation-filters="sRGB" style="margin: auto;">   <g data-v-6805eed4="" fill="#ff0844" class="pmspacesvg" transform="translate(96.24004364013672,94.2201156616211)"><g><g transform="translate(0,0)"><g><rect data-gra="graph-name"></rect></g> <g data-gra="path-name" fill-rule="" class="tp-name" fill="#ff0844"><g transform="scale(0.32999999999999996)"><g><path d="M63.18 -42.4C63.18 -77.24 52.38 -82.36 33.75 -75.76 15.21 -68.99 4.32 -58.31 4.32 -32.01 4.32 -6.18 14.76 0.63 32.58 0.9Q36.13 6.97 39.69 13.05 50.22 13.05 60.75 13.05 55.08 5.71 49.41 -2.07C58.32 -6.95 63.18 -19.06 63.18 -42.4Q63.18 -42.4 63.18 -42.4M23.22 -35.45C23.22 -50.88 25.2 -56.04 33.75 -58.43 42.3 -60.79 44.37 -56.27 44.37 -39.21 44.37 -22.37 42.3 -17.24 33.75 -16.57 25.2 -15.89 23.22 -20.23 23.22 -35.45Q23.22 -35.45 23.22 -35.45M101.25 0.9C118.8 0.9 129.41 -8.65 129.41 -35.05Q129.41 -69.28 129.41 -103.53 120.51 -101.45 111.6 -99.22 111.6 -67.4 111.6 -35.6C111.6 -30.29 110.16 -22.78 101.25 -22.23 92.61 -21.67 91.08 -27.49 91.08 -33.56Q91.08 -63.54 91.08 -93.54 82.12 -90.85 73.17 -88.06 73.17 -58.93 73.17 -29.81C73.17 -5.07 83.7 0.9 101.25 0.9Q101.25 0.9 101.25 0.9M159.03 -26.92Q159.03 -34.63 159.03 -42.34 169.51 -42.94 180 -43.44 180 -56.76 180 -70.09 169.51 -69.29 159.03 -68.32 159.03 -75.25 159.03 -82.17 170.45 -83.43 181.89 -84.46 181.89 -98.38 181.89 -112.29 161.5 -109.64 141.12 -106.02 141.12 -53.01 141.12 0 161.77 0 182.43 0 182.43 -13.83 182.43 -27.68 170.73 -27.34 159.03 -26.92M208.98 0.9C228.33 0.9 234.36 -11.69 234.36 -34.42 234.36 -55.2 232.47 -64.29 216.9 -71.73 209.16 -75.23 207.81 -76.34 207.81 -81.61 207.81 -87.04 210.06 -89.57 215.82 -89.7 220.77 -89.75 228.6 -87.58 231.21 -85.74Q231.21 -98.84 231.21 -111.96C227.7 -114.15 222.84 -116.15 215.01 -116.06 200.07 -115.44 190.53 -106.27 190.53 -79.54 190.53 -59.49 193.77 -51.78 207.45 -46.39 215.28 -43.03 216.45 -40.23 216.45 -35.45 216.45 -28.36 215.46 -26.05 207.99 -25.99 202.41 -25.93 195.12 -27.96 190.98 -29.98Q190.98 -16.05 190.98 -2.11C195.39 -0.16 202.05 0.9 208.98 0.9Q208.98 0.9 208.98 0.9M288.45 -109.18Q264.64 -112.35 240.84 -114.12 240.84 -99.81 240.84 -85.51 248.26 -85.21 255.69 -84.8 255.69 -42.4 255.69 0 264.6 0 273.51 0 273.51 -41.7 273.51 -83.41 280.98 -82.66 288.45 -81.8 288.45 -95.49 288.45 -109.18M296.1 0Q305.05 0 314.01 0 314.01 -52.16 314.01 -104.33 305.05 -106.19 296.1 -107.88 296.1 -53.94 296.1 0M353.7 0.9C372.33 0.9 383.13 -7.47 383.13 -42.52 383.13 -77.45 372.33 -89.82 353.7 -95.56 335.16 -100.72 324.27 -92.88 324.27 -50.99 324.27 -8.96 335.16 0.9 353.7 0.9Q353.7 0.9 353.7 0.9M353.7 -20.9C345.15 -21.44 343.17 -27.72 343.17 -48.58 343.17 -69.72 345.15 -75.6 353.7 -73.7 362.25 -71.72 364.32 -65.32 364.32 -45.51 364.32 -25.97 362.25 -20.34 353.7 -20.9Q353.7 -20.9 353.7 -20.9M393.39 0Q402.21 0 411.03 0 411.03 -25.23 411.03 -50.47 411.29 -50.4 411.57 -50.34 418.99 -24.28 426.42 0 438.88 0 451.35 0 451.35 -30.44 451.35 -60.88 442.62 -64.07 433.89 -67.25 433.89 -46.17 433.89 -25.1 433.62 -25.13 433.35 -25.17 426.87 -47.92 420.39 -72.14 406.89 -76.94 393.39 -81.61 393.39 -40.8 393.39 0" transform="translate(-4.320000171661377, 116.06292724609375)"></path></g> <!----> <!----> <!----> <!----> <!----> <!----> <!----></g></g></g> </g> <!----></g><defs v-gra="od"></defs></svg>