<svg data-v-6805eed4="" version="1.0" xmlns="http://www.w3.org/2000/svg" xmlns:xlink="http://www.w3.org/1999/xlink" width="100%" height="100%" viewBox="0 0 340.000000 250.000000" preserveAspectRatio="xMidYMid meet" color-interpolation-filters="sRGB" style="margin: auto;">   <g data-v-6805eed4="" fill="#eeeeee" class="pmspacesvg" transform="translate(102.68939208984375,79.58574676513672)"><polyline data-gra="graph-name" stroke="#eeeeee" stroke-width="3" fill-opacity="0" points="72.31060409545898,20 72.31060409545898,10 0,0 0,90.82850646972656 72.31060409545898,80.82850646972656 72.31060409545898,70.82850646972656"></polyline><g transform="translate(10,23)"><g transform="translate(0,0)"><g><rect data-gra="graph-name"></rect></g> <g data-gra="path-name" fill-rule="" class="tp-name" fill="#eeeeee"><g transform="scale(0.32999999999999996)"><g><path d="M43.2 0L43.2-54 17.1-54 17.1-9 40.5-9 40.5 0 50.22 9.45 39.42 9.45 29.7 0 15.3 0 6.3-9 6.3-54 15.3-63 45-63 54-54 54-9 45 0 43.2 0ZM70.2-63L70.2-9 93.6-9 93.6 0 68.4 0 59.4-9 59.4-63 70.2-63ZM96.3-63L107.1-63 107.1-9 98.1 0 96.3 0 96.3-63ZM155.34-54L123.3-54 123.3-36 151.2-36 151.2-27 123.3-27 123.3-9 155.34-9 155.34 0 112.5 0 112.5-63 155.34-63 155.34-54ZM208.44-48.6L197.64-48.6 197.64-54 171.54-54 171.54-36 199.44-36 208.44-27 208.44-9 199.44 0 169.74 0 160.74-9 160.74-14.4 171.54-14.4 171.54-9 197.64-9 197.64-27 169.74-27 160.74-36 160.74-54 169.74-63 199.44-63 208.44-54 208.44-48.6ZM260.64-63L260.64-54 242.19-54 242.19 0 231.39 0 231.39-54 212.94-54 212.94-63 260.64-63ZM266.94 0L266.94-63 277.74-63 277.74 0 266.94 0ZM321.84-63L330.84-54 330.84-9 321.84 0 320.04 0 320.04-54 293.94-54 293.94-9 317.34-9 317.34 0 292.14 0 283.14-9 283.14-54 292.14-63 321.84-63ZM373.14-63L383.94-63 383.94 0 366.57 0 347.04-54.27 347.04 0 336.24 0 336.24-63 354.69-63 373.14-11.79 373.14-63Z" transform="translate(-6.300000190734863, 63)"></path></g> <!----> <!----> <!----> <!----> <!----> <!----> <!----></g></g></g> <g data-gra="path-slogan" fill-rule="" class="tp-slogan" fill="#eeeeee" transform="translate(26.850601196289062,33.90850067138672)"><!----> <!----> <g transform="scale(1, 1)"><g transform="scale(1)"><path d="M5.77-9.70L5.77-9.70Q6.84-9.38 6.89-9.19L6.89-9.19Q6.89-9.14 6.75-9.05L6.75-9.05Q6.52-8.81 6.28-8.48L6.28-8.48Q8.48-8.48 8.63-8.53L8.63-8.53Q8.77-8.53 8.67-8.44L8.67-8.44Q8.58-8.25 8.30-7.78L8.30-7.78Q7.97-7.17 7.64-6.61L7.64-6.61L7.97-6.61Q8.48-6.61 8.95-6.66L8.95-6.66Q9.09-6.66 9.14-6.66L9.14-6.66Q9.23-6.70 9.23-6.61L9.23-6.61Q9.14-5.67 9.14-5.02L9.14-5.02L9.14-0.19Q9.33 0.80 7.73 0.94L7.73 0.94Q7.64 0.42 7.41-0.05L7.41-0.05Q8.44 0.05 8.34-0.38L8.34-0.38L8.34-2.06L7.22-2.06L7.22-1.27Q7.22-0.28 7.27 0.23L7.27 0.23L6.42 0.23Q6.42 0.05 6.42-0.42L6.42-0.42Q6.47-0.98 6.47-1.27L6.47-1.27L6.47-2.06L5.48-2.06Q5.30-0.19 4.50 1.13L4.50 1.13Q4.17 0.80 3.70 0.47L3.70 0.47Q4.73-0.56 4.69-3.38L4.69-3.38L4.69-6.28L4.22-5.53L3.56-6.28Q4.92-7.78 5.77-9.70ZM7.36-7.73L7.36-7.73L5.81-7.73L5.06-6.61L6.61-6.61Q6.94-6.98 7.36-7.73ZM8.34-4.59L8.34-5.81L7.22-5.81L7.22-4.59L8.34-4.59ZM6.47-5.81L5.53-5.81L5.53-4.59L6.47-4.59L6.47-5.81ZM11.86-5.25L11.86-5.25Q12.98-5.25 12.98-5.11L12.98-5.11Q12.98-5.06 12.94-4.97L12.94-4.97Q12.75-4.64 12.75-4.03L12.75-4.03Q13.83-4.03 14.44-4.08L14.44-4.08L14.44-3.28Q14.39-3.28 14.16-3.28L14.16-3.28Q13.36-3.33 12.80-3.33L12.80-3.33L12.80-2.02Q14.06-2.02 14.77-2.06L14.77-2.06L14.77-1.17Q14.72-1.17 14.58-1.17L14.58-1.17Q13.88-1.22 12.80-1.22L12.80-1.22L12.80-0.42Q12.84 1.13 12.84 1.13L12.84 1.13L11.77 1.13Q11.81 0.33 11.81-0.42L11.81-0.42L11.81-1.22L10.92-1.22Q9.94-1.22 9.47-1.17L9.47-1.17L9.47-2.06Q9.56-2.06 9.94-2.06L9.94-2.06Q10.64-2.02 10.97-2.02L10.97-2.02L11.86-2.02L11.86-3.33L10.69-3.33Q10.59-3 10.22-2.25L10.22-2.25Q9.89-2.48 9.42-2.53L9.42-2.53Q9.80-3.28 10.22-4.69L10.22-4.69Q10.27-4.83 10.27-4.88L10.27-4.88Q11.39-4.69 11.30-4.59L11.30-4.59Q11.30-4.50 11.20-4.41L11.20-4.41Q11.06-4.22 10.97-4.03L10.97-4.03L11.86-4.03Q11.86-5.25 11.86-5.25ZM8.34-2.72L8.34-3.94L7.22-3.94L7.22-2.72L8.34-2.72ZM6.47-2.72L6.47-3.94L5.48-3.94L5.48-2.72L6.47-2.72ZM9.23-5.77L9.23-5.77Q10.73-6.42 10.73-8.11L10.73-8.11Q9.38-8.06 9.38-8.06L9.38-8.06L9.38-9Q9.89-8.95 11.11-8.95L11.11-8.95L12-8.95Q13.50-8.95 14.06-9.05L14.06-9.05Q14.20-9.05 14.16-8.91L14.16-8.91Q13.92-6.47 13.69-6L13.69-6Q13.55-5.63 12-5.48L12-5.48Q11.91-6.09 11.72-6.56L11.72-6.56Q12.80-6.38 12.89-6.80L12.89-6.80Q12.98-7.03 13.08-7.88L13.08-7.88Q13.13-8.06 13.13-8.11L13.13-8.11L11.63-8.11Q11.53-6.42 10.08-5.11L10.08-5.11Q9.61-5.48 9.23-5.77ZM17.77-9.75L17.77-9.75Q18.94-9.52 19.03-9.33L19.03-9.33Q19.03-9.28 18.94-9.23L18.94-9.23Q18.61-9.05 18.47-8.77L18.47-8.77Q18.05-8.06 17.95-7.88L17.95-7.88L18.70-7.88Q19.50-7.88 20.20-7.97L20.20-7.97L20.20-7.03Q19.55-7.13 18.75-7.13L18.75-7.13L17.53-7.13L16.27-5.30Q15.98-5.67 15.52-6.05L15.52-6.05Q17.06-7.55 17.77-9.75ZM22.73-9.75L22.73-9.75Q23.95-9.75 23.95-9.66L23.95-9.66Q23.95-9.61 23.91-9.52L23.91-9.52Q23.72-9.23 23.72-8.91L23.72-8.91L23.72-6.28L24.66-6.28Q25.64-6.28 26.06-6.42L26.06-6.42Q26.02-6.14 26.02-5.16L26.02-5.16L26.02-3.14Q26.02-2.11 26.16-1.59L26.16-1.59L24.98-1.59Q25.13-2.11 25.13-3.09L25.13-3.09L25.13-5.48L21.75-5.48L21.75-2.81Q21.75-1.78 21.84-1.31L21.84-1.31L20.77-1.31Q20.86-1.92 20.86-2.77L20.86-2.77L20.86-4.64Q20.86-5.77 20.72-6.33L20.72-6.33Q21.28-6.28 22.03-6.28L22.03-6.28L22.83-6.28L22.83-8.72Q22.83-9.52 22.73-9.75ZM25.31-9.09L25.31-9.09Q25.55-9 25.88-8.86L25.88-8.86Q26.53-8.58 26.48-8.48L26.48-8.48Q26.48-8.48 26.39-8.44L26.39-8.44Q26.20-8.30 26.06-8.16L26.06-8.16Q25.83-7.92 25.36-7.17L25.36-7.17Q25.08-6.75 24.94-6.61L24.94-6.61Q24.47-6.89 24.09-7.08L24.09-7.08Q24.89-7.78 25.31-9.09ZM20.34-8.48L21.14-8.91Q21.66-8.39 22.27-7.27L22.27-7.27L21.38-6.80Q20.95-7.78 20.34-8.48L20.34-8.48ZM22.92-4.88L22.92-4.88Q23.72-4.88 24.19-4.73L24.19-4.73Q24.19-4.69 24.14-4.64L24.14-4.64Q23.91-4.41 23.91-4.03L23.91-4.03Q23.95-1.83 23.20-0.80L23.20-0.80Q22.55 0.23 20.53 1.17L20.53 1.17Q20.20 0.70 19.64 0.33L19.64 0.33Q23.11-0.23 22.92-3.33L22.92-3.33Q22.92-4.13 22.92-4.88ZM23.58-0.52L24.23-1.17Q25.36-0.66 26.86 0.28L26.86 0.28L26.06 1.08Q24.94 0.05 23.58-0.52L23.58-0.52ZM16.73-5.86L17.81-5.86L18.42-5.86Q19.36-5.86 19.97-5.95L19.97-5.95L19.97-5.06Q19.41-5.16 18.42-5.16L18.42-5.16L18.42-3.66Q19.45-3.66 20.16-3.75L20.16-3.75L20.16-2.77Q19.55-2.86 18.42-2.86L18.42-2.86L18.42-0.80Q18.94-1.13 19.97-2.06L19.97-2.06Q20.16-1.17 20.30-0.98L20.30-0.98Q18.61 0.14 17.77 0.94L17.77 0.94Q17.67 1.08 17.63 1.08L17.63 1.08Q17.34 0.61 16.92 0.19L16.92 0.19Q17.53-0.28 17.58-0.66L17.58-0.66L17.58-2.86Q16.64-2.86 16.08-2.77L16.08-2.77L16.08-3.70Q16.41-3.66 17.58-3.66L17.58-3.66L17.58-5.16Q17.11-5.16 16.73-5.11L16.73-5.11L16.73-5.86ZM29.81-9.42L29.81-9.42Q30.70-9.23 31.17-9.05L31.17-9.05Q31.17-9 31.08-8.86L31.08-8.86Q30.61-8.44 30.19-7.41L30.19-7.41L31.97-7.41Q32.77-7.41 33.42-7.55L33.42-7.55L33.42-6.56Q32.72-6.66 31.69-6.66L31.69-6.66Q31.69-6.23 31.64-5.53L31.64-5.53Q31.64-4.88 31.64-4.50L31.64-4.50L32.30-4.50Q32.95-4.45 33.61-4.59L33.61-4.59L33.61-3.66Q33-3.70 32.25-3.70L32.25-3.70L31.55-3.70L31.41-3Q32.48-2.16 33.89-0.70L33.89-0.70L32.95 0Q31.97-1.45 31.13-2.25L31.13-2.25Q30.56-0.66 28.92 0.89L28.92 0.89Q28.45 0.52 27.75 0.28L27.75 0.28Q30.19-1.08 30.66-3.70L30.66-3.70L29.67-3.70Q28.88-3.70 28.17-3.66L28.17-3.66L28.17-4.59Q28.92-4.45 29.67-4.50L29.67-4.50L30.75-4.50Q30.75-4.55 30.75-4.69L30.75-4.69Q30.84-5.77 30.80-6.66L30.80-6.66L29.86-6.66Q29.67-6.19 29.34-5.63L29.34-5.63Q29.16-5.30 29.11-5.11L29.11-5.11L28.08-5.44Q29.48-7.13 29.81-9.42ZM33.98-8.06L33.98-8.06Q34.03-8.06 34.13-8.06L34.13-8.06Q34.69-7.97 35.30-7.97L35.30-7.97L36.80-7.97Q37.83-7.97 37.97-8.06L37.97-8.06Q37.97-8.06 37.92-6.89L37.92-6.89L37.92-1.41Q37.92-0.38 37.97 0.33L37.97 0.33L36.94 0.33Q36.98 0.38 36.98-0.84L36.98-0.84L35.02-0.84Q35.02-0.05 35.06 0.47L35.06 0.47L34.03 0.47Q34.08 0.33 34.08-1.31L34.08-1.31L34.08-6.84Q34.08-7.45 33.98-8.06ZM36.98-7.17L35.02-7.17L35.02-1.64L36.98-1.64L36.98-7.17ZM40.83-8.95L41.77-9.52Q42.66-8.39 43.08-7.50L43.08-7.50L42.09-6.94Q41.72-7.83 40.83-8.95L40.83-8.95ZM49.78-8.86L49.78-8.86Q49.78-8.86 49.78-8.81L49.78-8.81Q49.64-8.48 49.64-7.64L49.64-7.64L49.64-4.78Q49.64-4.17 49.73-3.66L49.73-3.66Q49.73-3.47 49.73-3.42L49.73-3.42Q49.69-3.42 49.45-3.42L49.45-3.42Q48.98-3.52 48.56-3.52L48.56-3.52L45.70-3.52Q45.05-3.52 44.63-3.42L44.63-3.42Q44.48-3.42 44.48-3.42L44.48-3.42Q44.44-3.47 44.48-3.75L44.48-3.75Q44.58-4.36 44.58-4.88L44.58-4.88L44.58-7.78Q44.58-8.34 44.48-8.72L44.48-8.72Q44.48-8.81 44.48-8.86L44.48-8.86Q44.48-8.86 44.58-8.86L44.58-8.86Q45.05-8.77 45.84-8.77L45.84-8.77L48.56-8.77Q49.17-8.77 49.64-8.86L49.64-8.86Q49.78-8.86 49.78-8.86ZM48.66-4.36L48.66-7.92L45.56-7.92L45.56-4.36L48.66-4.36ZM39.89-5.11L39.89-6.09Q39.94-6.09 39.98-6.09L39.98-6.09Q40.41-6.05 40.97-6.05L40.97-6.05L41.48-6.05Q41.95-6.05 42.28-6.09L42.28-6.09Q42.38-6.09 42.42-6.09L42.42-6.09Q42.42-6.09 42.42-6L42.42-6Q42.33-5.67 42.33-5.11L42.33-5.11L42.33-1.36Q43.31-2.34 43.55-2.67L43.55-2.67L43.97-1.78Q43.69-1.55 43.17-1.08L43.17-1.08Q42.47-0.47 41.81 0.14L41.81 0.14Q41.58-0.14 41.20-0.42L41.20-0.42Q41.44-0.75 41.44-1.64L41.44-1.64L41.44-5.20L40.78-5.20Q40.03-5.20 39.89-5.11L39.89-5.11ZM45.61-2.44L45.61-2.44Q45.84-2.30 46.27-2.11L46.27-2.11Q46.64-1.88 46.59-1.88L46.59-1.88Q46.59-1.88 46.55-1.83L46.55-1.83Q46.27-1.64 45.89-1.08L45.89-1.08Q44.91 0.19 44.20 0.98L44.20 0.98Q44.16 0.98 44.11 0.94L44.11 0.94Q43.45 0.61 43.13 0.52L43.13 0.52Q44.30-0.33 45.61-2.44ZM47.53-1.83L48.47-2.39L50.81 0.28L49.78 0.94Q48.47-0.94 47.53-1.83L47.53-1.83ZM55.92-6.61L56.48-7.27Q56.95-7.03 57.80-6.42L57.80-6.42Q57.94-6.33 57.98-6.28L57.98-6.28L57.23-5.58Q56.72-6.23 55.92-6.61L55.92-6.61ZM59.30-7.08L59.30-7.08Q60.23-6.42 60.23-6.23L60.23-6.23Q60.23-6.19 60.09-6.14L60.09-6.14Q59.91-6.09 59.77-5.95L59.77-5.95Q59.72-5.91 59.58-5.77L59.58-5.77Q57.80-4.13 56.16-3.38L56.16-3.38Q57.80-3.23 58.78-3.47L58.78-3.47Q59.25-3.66 59.44-4.64L59.44-4.64Q59.95-4.22 60.42-4.03L60.42-4.03Q60-3.14 59.53-2.72L59.53-2.72Q59.30-2.53 58.31-2.48L58.31-2.48Q57.14-2.48 56.06-2.58L56.06-2.58Q55.27-2.67 55.22-3L55.22-3Q53.48-2.30 52.45-2.02L52.45-2.02Q52.17-2.53 51.84-2.95L51.84-2.95Q53.20-3 55.13-3.80L55.13-3.80L55.13-5.39Q55.13-5.81 55.08-6L55.08-6Q56.02-6 56.20-5.91L56.20-5.91Q56.20-5.86 56.16-5.72L56.16-5.72Q56.06-5.53 56.02-5.30L56.02-5.30Q56.02-5.11 55.97-4.69L55.97-4.69Q55.97-4.31 55.97-4.17L55.97-4.17Q58.27-5.39 59.30-7.08ZM53.44-5.95L53.44-5.95L54.52-5.72Q54.47-5.58 54.38-5.34L54.38-5.34Q53.95-4.27 53.67-3.80L53.67-3.80Q53.25-4.03 52.69-4.08L52.69-4.08Q53.20-4.92 53.44-5.95ZM60-5.30L60.80-5.91Q61.83-5.20 62.58-4.36L62.58-4.36L61.69-3.61Q60.94-4.69 60-5.30L60-5.30ZM56.77-2.34L56.77-2.34Q57.89-2.25 57.84-2.16L57.84-2.16Q57.84-2.11 57.80-1.97L57.80-1.97Q57.70-1.78 57.70-1.64L57.70-1.64L57.70-0.23L60.19-0.33Q60.19-1.41 60.09-1.92L60.09-1.92Q61.17-1.92 61.31-1.73L61.31-1.73Q61.31-1.64 61.27-1.55L61.27-1.55Q61.17-1.45 61.17-1.31L61.17-1.31Q61.17-1.13 61.17 0L61.17 0Q61.17 0.14 61.17 0.52L61.17 0.52Q61.22 0.94 61.22 1.13L61.22 1.13L60.14 1.13Q60.19 0.66 60.19 0.33L60.19 0.33Q60.14 0.38 55.59 0.66L55.59 0.66Q54.19 0.75 53.53 0.80L53.53 0.80Q53.63-0.28 53.58-1.97L53.58-1.97Q54.75-1.88 54.70-1.78L54.70-1.78Q54.70-1.73 54.66-1.59L54.66-1.59Q54.52-1.45 54.52-1.27L54.52-1.27L54.52-0.09L56.81-0.19Q56.81-2.02 56.77-2.34ZM56.53-9.52L57.70-9.70Q57.89-9.09 58.13-8.34L58.13-8.34L61.41-8.34Q62.06-8.34 62.58-8.39L62.58-8.39Q62.58-8.39 62.53-7.55L62.53-7.55L62.53-7.22Q62.53-6.42 62.58-6.19L62.58-6.19L61.36-6.19Q61.41-6.38 61.41-7.22L61.41-7.22L61.41-7.45L53.20-7.45L53.20-7.27Q53.20-6.42 53.25-6.28L53.25-6.28L52.17-6.28Q52.17-6.33 52.17-6.47L52.17-6.47Q52.22-6.94 52.22-7.27L52.22-7.27L52.22-7.45Q52.22-7.97 52.17-8.39L52.17-8.39Q52.41-8.34 53.25-8.34L53.25-8.34L57.05-8.34Q56.77-9.14 56.53-9.52L56.53-9.52ZM69.19-7.97L69.19-9.05Q70.03-8.91 71.02-8.91L71.02-8.91L72.28-8.91Q73.17-8.91 73.69-9L73.69-9L73.17-4.36Q74.11-4.36 74.48-4.41L74.48-4.41Q74.44-3.98 74.39-2.77L74.39-2.77Q74.30-0.05 74.02 0.19L74.02 0.19Q73.55 0.84 72 0.89L72 0.89Q71.95 0.09 71.48-0.33L71.48-0.33Q72.89-0.05 73.13-0.47L73.13-0.47Q73.27-0.42 73.41-3.47L73.41-3.47L70.64-3.47Q69.84-3.47 69.52-3.38L69.52-3.38Q69.52-3.42 69.56-3.56L69.56-3.56Q69.66-4.13 69.66-4.55L69.66-4.55L69.66-7.36Q70.69-7.36 70.83-7.22L70.83-7.22Q70.83-7.17 70.78-7.08L70.78-7.08Q70.59-6.70 70.59-6.09L70.59-6.09L70.59-4.36L72.23-4.36L72.66-8.06L71.06-8.06Q69.84-8.02 69.19-7.97L69.19-7.97ZM64.31-7.73L64.31-8.81Q65.06-8.67 65.63-8.67L65.63-8.67L67.13-8.67Q68.16-8.72 68.63-8.81L68.63-8.81L68.63-7.73Q68.30-7.83 67.03-7.83L67.03-7.83L66.23-5.67L67.50-5.67Q68.11-5.67 68.53-5.77L68.53-5.77Q68.39-5.16 68.39-4.69L68.39-4.69L68.39-2.20Q68.39-1.41 68.53-0.70L68.53-0.70L67.45-0.70Q67.50-0.75 67.50-1.59L67.50-1.59L66.14-1.59Q66.14-0.84 66.23 0L66.23 0L65.11 0Q65.25-0.70 65.25-1.73L65.25-1.73L65.25-4.13Q65.02-3.80 64.36-2.91L64.36-2.91Q64.17-3.42 63.75-3.80L63.75-3.80Q65.11-4.73 66.09-7.83L66.09-7.83L65.58-7.83Q64.50-7.83 64.31-7.73L64.31-7.73ZM67.50-4.92L66.14-4.92L66.14-2.39L67.50-2.39L67.50-4.92ZM72.70-2.34L72.70-2.34L72.70-1.27Q71.95-1.36 71.11-1.36L71.11-1.36L70.36-1.36Q69.47-1.36 68.91-1.27L68.91-1.27L68.91-2.34Q69.80-2.20 70.27-2.20L70.27-2.20L71.16-2.20Q72.09-2.20 72.70-2.34Z" transform="translate(-3.5625, 9.75)"></path></g></g></g></g> <!----></g><defs v-gra="od"></defs></svg>